<?xml version="1.0" ?><!-- Uploaded to: SVG Repo, www.svgrepo.com, Generator: SVG Repo Mixer Tools -->
<svg fill="#000000" width="800px" height="800px" viewBox="0 0 100 100" data-name="Layer 1" id="Layer_1" xmlns="http://www.w3.org/2000/svg"><title/><path d="M50.79,58.88a11.08,11.08,0,1,0-2.38-2.77l-6.15,4.44V40.4a16.36,16.36,0,1,0-3.64-.2V55.33L29.45,49.5a10.81,10.81,0,0,0,1-4.51,11,11,0,1,0-3,7.52l11.2,7.14V90.5a1.82,1.82,0,1,0,3.64,0V65Zm7-15.71a7.29,7.29,0,1,1-7.28,7.29A7.3,7.3,0,0,1,57.74,43.17ZM19.51,52.28A7.29,7.29,0,1,1,26.79,45,7.29,7.29,0,0,1,19.51,52.28Zm9.1-28.22A12.75,12.75,0,1,1,41.35,36.8,12.75,12.75,0,0,1,28.61,24.06Z"/><path d="M87.14,72.54a5.91,5.91,0,0,0-7.36,7.18l-2.93,1.47V73a8.19,8.19,0,1,0-3.64,0v5.75l-4.64-2.24a6.74,6.74,0,0,0,.09-1.11,5.92,5.92,0,0,0-5.92-5.83h-.08a5.92,5.92,0,0,0,.08,11.83h.09a5.9,5.9,0,0,0,4-1.67l6.35,3.06V90.5a1.82,1.82,0,1,0,3.64,0V85.26l4.91-2.46a5.91,5.91,0,1,0,5.38-10.26Zm-24.4,5.22a2.28,2.28,0,0,1,0-4.55h0a2.28,2.28,0,1,1,0,4.55ZM70.48,65A4.55,4.55,0,1,1,75,69.57,4.55,4.55,0,0,1,70.48,65Zm17.2,13.83a2.28,2.28,0,0,1-2.18,1.64,2.35,2.35,0,0,1-.64-.09,2.28,2.28,0,1,1,2.82-1.55Z"/></svg>