<?xml version="1.0" encoding="iso-8859-1"?>
<!-- Uploaded to: SVG Repo, www.svgrepo.com, Generator: SVG Repo Mixer Tools -->
<svg fill="#000000" height="800px" width="800px" version="1.1" id="Layer_1" xmlns="http://www.w3.org/2000/svg" xmlns:xlink="http://www.w3.org/1999/xlink" 
	 viewBox="0 0 512 512" xml:space="preserve">
<g>
	<g>
		<path d="M501.801,261.085h-22.166L283.912,65.361c-0.225-0.225-0.461-0.435-0.702-0.633c-6.527-7.76-16.3-12.703-27.21-12.703
			c-11.365,0-21.495,5.367-28.008,13.692L102.86,190.849c-3.983,3.983-3.983,10.441,0,14.425c1.992,1.992,4.602,2.987,7.212,2.987
			s5.221-0.995,7.212-2.987L222.651,99.907c5.023,13.548,18.076,23.229,33.349,23.229c15.344,0,28.448-9.771,33.42-23.417
			l161.367,161.367H10.199C4.566,261.085,0,265.651,0,271.284v178.492c0,5.633,4.566,10.199,10.199,10.199h491.602
			c5.633,0,10.199-4.566,10.199-10.199V271.284C512,265.651,507.434,261.085,501.801,261.085z M256,102.737
			c-8.357,0-15.157-6.8-15.157-15.157s6.8-15.157,15.157-15.157s15.157,6.8,15.157,15.157S264.357,102.737,256,102.737z
			 M491.602,439.578H20.398V281.483h471.203V439.578z"/>
	</g>
</g>
<g>
	<g>
		<path d="M110.26,305.746c-5.633,0-10.199,4.566-10.199,10.199v34.31H64.646v-34.31c0-5.633-4.566-10.199-10.199-10.199
			s-10.199,4.566-10.199,10.199v89.019c0,5.633,4.566,10.199,10.199,10.199s10.199-4.566,10.199-10.199v-34.31h35.415v34.31
			c0,5.633,4.566,10.199,10.199,10.199c5.633,0,10.199-4.566,10.199-10.199v-89.019C120.459,310.312,115.893,305.746,110.26,305.746
			z"/>
	</g>
</g>
<g>
	<g>
		<path d="M389.057,394.917h-44.201v-24.264h29.339c5.633,0,10.199-4.566,10.199-10.199c0-5.633-4.566-10.199-10.199-10.199h-29.339
			v-24.111h44.59c5.633,0,10.199-4.566,10.199-10.199c0-5.633-4.566-10.199-10.199-10.199h-54.789
			c-5.633,0-10.199,4.566-10.199,10.199v89.019c0,5.633,4.566,10.199,10.199,10.199l54.401-0.054c5.633,0,10.199-4.359,10.199-9.992
			C399.256,399.483,394.69,394.917,389.057,394.917z"/>
	</g>
</g>
<g>
	<g>
		<path d="M460.92,394.917h-30.214v-78.972c0-5.633-4.566-10.199-10.199-10.199c-5.633,0-10.199,4.566-10.199,10.199v89.019
			c0,5.633,4.566,10.199,10.199,10.199l40.413-0.054c5.633,0,10.199-4.359,10.199-9.992
			C471.12,399.483,466.553,394.917,460.92,394.917z"/>
	</g>
</g>
<g>
	<g>
		<path d="M304.528,305.745h-54.4c-5.633,0-10.199,4.566-10.199,10.199c0,5.633,4.566,10.199,10.199,10.199h17.001v78.819
			c0,5.633,4.566,10.199,10.199,10.199c5.633,0,10.199-4.566,10.199-10.199v-78.819h17c5.633,0,10.199-4.566,10.199-10.199
			C314.727,310.311,310.161,305.745,304.528,305.745z"/>
	</g>
</g>
<g>
	<g>
		<path d="M186.652,305.746c-30.166,0-54.709,24.542-54.709,54.708c0,30.166,24.542,54.709,54.709,54.709
			s54.708-24.542,54.708-54.709C241.36,330.288,216.818,305.746,186.652,305.746z M186.652,394.764
			c-18.919,0-34.31-15.392-34.31-34.31s15.392-34.31,34.31-34.31s34.31,15.392,34.31,34.31S205.57,394.764,186.652,394.764z"/>
	</g>
</g>
<g>
	<g>
		<path d="M89.34,218.534c-3.983-3.984-10.441-3.983-14.425,0l-10.349,10.349c-3.983,3.983-3.983,10.441,0,14.425
			c1.992,1.992,4.603,2.987,7.213,2.987s5.221-0.995,7.212-2.987l10.349-10.349C93.323,228.976,93.323,222.518,89.34,218.534z"/>
	</g>
</g>
</svg>