<?xml version="1.0" encoding="iso-8859-1"?>
<!-- Uploaded to: SVG Repo, www.svgrepo.com, Generator: SVG Repo Mixer Tools -->
<svg fill="#000000" height="800px" width="800px" version="1.1" id="Layer_1" xmlns="http://www.w3.org/2000/svg" xmlns:xlink="http://www.w3.org/1999/xlink" 
	 viewBox="0 0 512.001 512.001" xml:space="preserve">
<g>
	<g>
		<path d="M483.827,64.487c-16.61-0.572-30.288,12.744-30.288,29.212v75.79h-17.75v-75.29c0-16.1-12.375-29.15-28.173-29.712
			c-16.613-0.572-30.288,12.744-30.288,29.212v75.79H365.37v-12.156c0-22.613-15.786-41.69-37.161-46.473V48.96
			c0-16.1-12.375-29.15-28.173-29.712c-16.619-0.568-30.288,12.743-30.288,29.212v72.084c0,22.613,15.785,41.691,37.161,46.472
			v13.309c0,26.26,21.364,47.626,47.626,47.626h0.813v63.709h-34.383v-14.702c0-16.1-12.375-29.15-28.173-29.712
			c-16.613-0.572-30.288,12.745-30.288,29.212v15.202h-14.718V48.96c0-16.1-12.375-29.15-28.173-29.712
			c-16.61-0.573-30.288,12.743-30.288,29.212V291.66h-89.054v-66.133h24.274c26.26,0,47.626-21.364,47.626-47.626v-36.039
			c0-16.1-12.375-29.15-28.173-29.712c-16.613-0.576-30.288,12.743-30.288,29.212v25.704h-13.439v-63.173
			c0-16.1-12.375-29.15-28.173-29.712C55.525,73.621,41.81,86.925,41.81,103.393v188.266H29.022C13.019,291.659,0,304.678,0,320.681
			v0.418c0,16.003,13.019,29.022,29.022,29.022h201.973v22.325H66.842c-16.1,0-29.15,12.375-29.712,28.173
			c-0.284,8.012,2.619,15.597,8.177,21.355c5.56,5.76,13.029,8.933,21.034,8.933h164.654v53.514c0,4.613,3.738,8.352,8.352,8.352
			h41.758c4.612,0,8.352-3.738,8.352-8.352V350.121h76.726c26.26,0,47.625-21.364,47.625-47.625v-74.545h50.568
			c26.26,0,47.626-21.364,47.626-47.626V94.2C512,78.099,499.625,65.049,483.827,64.487z M464.374,211.248h-58.919
			c-4.612,0-8.352,3.738-8.352,8.352v82.897c0,17.05-13.872,30.922-30.922,30.922h-85.077c-4.612,0-8.352,3.739-8.352,8.352v134.299
			h-25.055v-53.514c0-4.612-3.739-8.352-8.352-8.352H66.341c-3.43,0-6.632-1.36-9.016-3.829c-2.381-2.468-3.626-5.722-3.502-9.163
			c0.237-6.652,6.077-12.063,13.019-12.063h172.506c4.612,0,8.352-3.739,8.352-8.352V341.77c0-4.612-3.739-8.352-8.352-8.352H29.022
			c-6.793,0-12.319-5.526-12.319-12.319v-0.418c0-6.792,5.526-12.319,12.319-12.319h21.14c4.613,0,8.352-3.739,8.352-8.352V103.393
			c0-7.062,5.865-12.778,12.992-12.519c6.651,0.236,12.063,6.076,12.063,13.019v71.524c0,4.612,3.739,8.352,8.352,8.352h30.142
			c4.612,0,8.352-3.739,8.352-8.352v-34.056c0.001-7.061,5.858-12.783,12.992-12.519c6.651,0.236,12.063,6.076,12.063,13.019V177.9
			c0,17.051-13.872,30.923-30.923,30.923H91.919c-4.612,0-8.352,3.739-8.352,8.352v82.836c0,4.612,3.739,8.352,8.352,8.352h105.755
			c4.613,0,8.352-3.739,8.352-8.352V48.46c0-7.061,5.862-12.778,12.992-12.519c6.651,0.236,12.063,6.076,12.063,13.019v251.052
			c0,4.612,3.739,8.352,8.352,8.352h31.421c4.612,0,8.352-3.739,8.352-8.352v-23.553c0-7.061,5.869-12.777,12.992-12.519
			c6.651,0.236,12.063,6.076,12.063,13.019v23.053c0,4.612,3.738,8.352,8.352,8.352h51.087c4.613,0,8.352-3.739,8.352-8.352V219.6
			c0-4.613-3.738-8.352-8.352-8.352h-9.165c-17.051,0-30.923-13.872-30.923-30.923v-20.564c0-4.44-3.474-8.104-7.908-8.34
			c-16.404-0.874-29.253-14.437-29.253-30.878V48.46c0-7.061,5.872-12.778,12.992-12.519c6.651,0.236,12.063,6.076,12.063,13.019
			v69.157c0,4.44,3.474,8.104,7.908,8.34c16.404,0.873,29.253,14.437,29.253,30.878v20.507c0,4.612,3.739,8.352,8.352,8.352h28.661
			c4.612,0,8.352-3.739,8.352-8.352V93.7c0-7.061,5.85-12.773,12.992-12.519c6.651,0.236,12.063,6.076,12.063,13.019v83.642
			c0,4.612,3.739,8.352,8.352,8.352h34.453c4.612,0,8.352-3.739,8.352-8.352V93.7c0-7.061,5.865-12.773,12.992-12.519
			c6.651,0.236,12.063,6.076,12.063,13.019v86.125h0.002C495.297,197.376,481.425,211.248,464.374,211.248z"/>
	</g>
</g>
</svg>